<svg width="16" height="22" viewBox="0 0 16 22" fill="none" xmlns="http://www.w3.org/2000/svg">
<path d="M7 2.94286V2C7 1.44772 7.44772 1 8 1V1C8.55228 1 9 1.44772 9 2V3" stroke="#2C2C2C" stroke-width="1.5"/>
<path d="M9.16732 3H6.56607C4.26324 3 2.70261 5.15507 3.25927 7.3896C3.80669 9.58702 3.77792 11.232 2.29858 14.3831C2.29858 14.3831 5.15847 14.0446 7.00006 14L7.05859 13.9986C7.80327 13.9805 8.23934 13.9699 9.00006 14C10.374 14.0543 11.1399 14.182 12.5001 14.3831C12.9809 14.4542 13.7288 14.5816 13.7288 14.5816C12.3176 12.2865 12.2099 10.0627 12.6794 7.64537C13.1336 5.30702 11.5494 3 9.16732 3Z" fill="#2C2C2C"/>
<path d="M9.16732 3L9.16732 2.25H9.16732V3ZM12.6794 7.64537L13.4157 7.78837L12.6794 7.64537ZM3.25927 7.3896L3.98703 7.2083L3.25927 7.3896ZM13.7288 14.5816L13.6028 15.321L15.2347 15.5989L14.3677 14.1888L13.7288 14.5816ZM2.29858 14.3831L1.61968 14.0644L1.04587 15.2866L2.38675 15.1279L2.29858 14.3831ZM7.00006 14L7.01821 14.7498L7.01824 14.7498L7.00006 14ZM7.05859 13.9986L7.07677 14.7484H7.07677L7.05859 13.9986ZM9.00006 14L9.02966 13.2506H9.02966L9.00006 14ZM12.5001 14.3831L12.3903 15.125L12.5001 14.3831ZM6.56607 3.75H9.16732V2.25H6.56607V3.75ZM9.16732 3.75C10.9904 3.75 12.3249 5.5371 11.9432 7.50238L13.4157 7.78837C13.9423 5.07695 12.1083 2.25 9.16732 2.25L9.16732 3.75ZM6.56607 2.25C3.7372 2.25 1.86641 4.90109 2.53151 7.5709L3.98703 7.2083C3.5388 5.40904 4.78928 3.75 6.56607 3.75V2.25ZM11.9432 7.50238C11.4497 10.0433 11.5519 12.4732 13.0899 14.9744L14.3677 14.1888C13.0832 12.0997 12.9702 10.0821 13.4157 7.78837L11.9432 7.50238ZM2.97749 14.7018C3.73597 13.0862 4.1477 11.8049 4.28409 10.6141C4.4216 9.41358 4.27317 8.35692 3.98703 7.2083L2.53151 7.5709C2.79279 8.6197 2.90369 9.48426 2.79384 10.4434C2.68286 11.4122 2.34054 12.5289 1.61968 14.0644L2.97749 14.7018ZM2.29858 14.3831C2.38675 15.1279 2.38674 15.1279 2.38674 15.1279C2.38675 15.1279 2.38676 15.1279 2.38679 15.1279C2.38685 15.1279 2.38695 15.1279 2.38709 15.1279C2.38738 15.1278 2.38784 15.1278 2.38848 15.1277C2.38974 15.1276 2.39168 15.1273 2.3943 15.127C2.39952 15.1264 2.40742 15.1255 2.41786 15.1243C2.43875 15.1218 2.46984 15.1182 2.51019 15.1136C2.59088 15.1044 2.70856 15.0911 2.85567 15.0751C3.14998 15.0429 3.56153 14.9996 4.02998 14.9549C4.97188 14.865 6.12533 14.7714 7.01821 14.7498L6.98191 13.2502C6.03321 13.2732 4.83592 13.3711 3.88747 13.4617C3.41075 13.5072 2.99223 13.5512 2.69277 13.584C2.54298 13.6003 2.42284 13.6139 2.33995 13.6233C2.29849 13.6281 2.26634 13.6318 2.24444 13.6343C2.23349 13.6356 2.2251 13.6366 2.21939 13.6373C2.21654 13.6376 2.21435 13.6378 2.21285 13.638C2.2121 13.6381 2.21152 13.6382 2.21112 13.6382C2.21091 13.6382 2.21075 13.6383 2.21064 13.6383C2.21058 13.6383 2.21053 13.6383 2.2105 13.6383C2.21045 13.6383 2.21042 13.6383 2.29858 14.3831ZM7.01824 14.7498L7.07677 14.7484L7.04041 13.2488L6.98188 13.2502L7.01824 14.7498ZM7.07677 14.7484C7.81905 14.7304 8.23506 14.7204 8.97046 14.7494L9.02966 13.2506C8.24362 13.2195 7.78748 13.2307 7.04041 13.2488L7.07677 14.7484ZM8.97046 14.7494C10.2978 14.8018 11.0247 14.9231 12.3903 15.125L12.6098 13.6412C11.255 13.4408 10.4501 13.3067 9.02966 13.2506L8.97046 14.7494ZM12.3903 15.125C12.6243 15.1596 12.9264 15.2084 13.1727 15.249C13.2953 15.2692 13.403 15.2872 13.48 15.3002C13.5185 15.3067 13.5493 15.3119 13.5705 15.3155C13.581 15.3173 13.5892 15.3186 13.5947 15.3196C13.5974 15.32 13.5995 15.3204 13.6008 15.3206C13.6015 15.3207 13.602 15.3208 13.6024 15.3209C13.6025 15.3209 13.6027 15.3209 13.6027 15.3209C13.6028 15.3209 13.6028 15.3209 13.6028 15.321C13.6028 15.321 13.6028 15.321 13.6028 15.321C13.6028 15.321 13.6028 15.321 13.7288 14.5816C13.8547 13.8423 13.8547 13.8423 13.8547 13.8423C13.8547 13.8422 13.8547 13.8422 13.8547 13.8422C13.8546 13.8422 13.8546 13.8422 13.8545 13.8422C13.8544 13.8422 13.8543 13.8422 13.8541 13.8421C13.8537 13.8421 13.8531 13.842 13.8524 13.8419C13.8509 13.8416 13.8487 13.8412 13.8459 13.8407C13.8401 13.8398 13.8318 13.8384 13.8209 13.8365C13.7993 13.8329 13.7679 13.8276 13.7288 13.821C13.6506 13.8078 13.5412 13.7895 13.4167 13.769C13.1689 13.7281 12.8566 13.6777 12.6098 13.6412L12.3903 15.125Z" fill="#2C2C2C"/>
<ellipse cx="8" cy="15.5" rx="7" ry="1.5" fill="#2C2C2C" stroke="#2C2C2C" stroke-width="1.5"/>
<path d="M10.6641 20.2214C10.7863 19.8546 10.5881 19.4582 10.2214 19.3359C9.8546 19.2137 9.45818 19.4119 9.33592 19.7786L10.6641 20.2214ZM6.66408 19.7786C6.54182 19.4119 6.1454 19.2137 5.77864 19.3359C5.41188 19.4582 5.21367 19.8546 5.33592 20.2214L6.66408 19.7786ZM10 20C9.33592 19.7786 9.33608 19.7782 9.33624 19.7777C9.3363 19.7775 9.33646 19.777 9.33656 19.7767C9.33677 19.7761 9.33697 19.7755 9.33718 19.7749C9.33758 19.7737 9.33797 19.7726 9.33835 19.7715C9.3391 19.7693 9.33979 19.7674 9.34042 19.7656C9.34168 19.7621 9.34269 19.7595 9.34345 19.7575C9.34495 19.7537 9.34541 19.7528 9.34465 19.7545C9.3431 19.7579 9.33686 19.7711 9.32458 19.7912C9.30011 19.8313 9.25224 19.8976 9.16945 19.9685C9.01577 20.1002 8.68149 20.3 8 20.3V21.7C8.98518 21.7 9.6509 21.3998 10.0806 21.0315C10.2894 20.8524 10.4291 20.6687 10.5192 20.5213C10.5642 20.4476 10.597 20.3828 10.6202 20.3315C10.6318 20.3058 10.6411 20.2834 10.6483 20.2649C10.6519 20.2557 10.6549 20.2474 10.6576 20.2401C10.6589 20.2365 10.6601 20.2331 10.6612 20.2299C10.6617 20.2284 10.6622 20.2269 10.6627 20.2255C10.6629 20.2247 10.6632 20.224 10.6634 20.2234C10.6635 20.223 10.6637 20.2225 10.6637 20.2223C10.6639 20.2219 10.6641 20.2214 10 20ZM8 20.3C7.31851 20.3 6.98423 20.1002 6.83055 19.9685C6.74776 19.8976 6.69989 19.8313 6.67542 19.7912C6.66314 19.7711 6.6569 19.7579 6.65535 19.7545C6.65459 19.7528 6.65505 19.7537 6.65655 19.7575C6.65731 19.7595 6.65832 19.7621 6.65958 19.7656C6.66021 19.7674 6.6609 19.7693 6.66165 19.7715C6.66203 19.7726 6.66242 19.7737 6.66282 19.7749C6.66303 19.7755 6.66323 19.7761 6.66344 19.7767C6.66354 19.777 6.6637 19.7775 6.66376 19.7777C6.66392 19.7782 6.66408 19.7786 6 20C5.33592 20.2214 5.33609 20.2219 5.33625 20.2223C5.33631 20.2225 5.33648 20.223 5.33659 20.2234C5.33682 20.224 5.33706 20.2247 5.3373 20.2255C5.33779 20.2269 5.3383 20.2284 5.33884 20.2299C5.33992 20.2331 5.34112 20.2365 5.34243 20.2401C5.34505 20.2474 5.34815 20.2557 5.35175 20.2649C5.35894 20.2834 5.36819 20.3058 5.3798 20.3315C5.40299 20.3828 5.43582 20.4476 5.48083 20.5213C5.57095 20.6687 5.71057 20.8524 5.91945 21.0315C6.3491 21.3998 7.01482 21.7 8 21.7V20.3Z" fill="#2C2C2C"/>
</svg>
