<svg width="24" height="24" viewBox="0 0 24 24" fill="none" xmlns="http://www.w3.org/2000/svg">
<g clip-path="url(#clip0_5696_84849)">
<path d="M1.16529 16.9438C1.34437 17.0334 1.53718 17.0953 1.73603 17.1299L1.42622 17.5723C1.36359 17.6618 1.32276 17.7645 1.30665 17.8724L0.845404 20.983C0.806402 21.2465 0.919379 21.5094 1.13764 21.6621C1.35609 21.815 1.64173 21.8311 1.87574 21.7044L4.48079 20.2938C4.84059 20.9438 5.53346 21.3851 6.32759 21.3851C6.86739 21.3851 7.36049 21.1813 7.73385 20.8468C8.10738 21.1813 8.60049 21.3851 9.1401 21.3851C10.3034 21.3851 11.2497 20.4388 11.2497 19.2757V19.0065C12.5576 19.643 14.014 19.9788 15.4684 19.9788C16.9708 19.9788 18.4607 19.6342 19.7811 18.9829V20.682C19.7811 20.9257 19.9073 21.152 20.1146 21.2802C20.3215 21.408 20.5804 21.4201 20.7986 21.3109L23.6113 19.9047C23.8495 19.7855 24.0001 19.5421 24.0001 19.2757V10.838C24.0001 10.4496 23.6851 10.1349 23.2969 10.1349C22.1769 10.1349 19.4596 10.1349 18.4439 10.1349L13.4837 7.7078L15.3683 5.01651C15.5907 4.69863 15.5137 4.25991 15.1954 4.03726L12.8916 2.42391C12.5737 2.20143 12.135 2.27852 11.9123 2.59658C11.6146 3.02175 9.71469 5.7352 9.41897 6.15744C8.84219 5.8544 8.1506 5.85586 7.71187 6.04629L5.03633 7.20865C4.64851 7.37729 4.3235 7.65488 4.09682 8.01175L0.257451 14.0506C0.00806048 14.443 -0.0952112 15.1163 0.107304 15.724C0.285466 16.2585 0.661199 16.6917 1.16529 16.9438ZM2.44282 19.7983L2.67353 18.243L3.30232 17.3448C3.57185 17.7383 3.93861 18.0597 4.36781 18.275L3.82545 19.0496L2.44282 19.7983ZM6.32759 19.979C5.93996 19.979 5.62447 19.6635 5.62447 19.2757V18.932L5.87624 18.5726H7.03072V19.2757C7.03072 19.6635 6.71541 19.979 6.32759 19.979ZM9.14028 19.979C8.75247 19.979 8.43716 19.6635 8.43716 19.2757V18.5726H9.84341V19.2757C9.84341 19.6635 9.52792 19.979 9.14028 19.979ZM22.5938 18.8412L21.1874 19.5443V11.5411H22.5938V18.8412ZM17.972 11.4695C18.0683 11.5166 18.174 11.5411 18.2811 11.5411H19.7811V17.4254C19.3072 17.6096 17.8358 18.5726 15.4686 18.5726C12.9591 18.5726 11.4135 17.4611 10.8609 17.2405C10.7606 17.1903 10.65 17.1663 10.5465 17.1663H5.62447C4.90541 17.1663 4.31105 16.6238 4.22847 15.9265C4.25044 15.8245 4.24843 15.7198 4.22517 15.6196C4.29585 14.9099 4.89644 14.3538 5.62447 14.3538H9.96408C11.4342 14.3538 12.8167 13.7812 13.8564 12.7416C14.1308 12.4669 14.1308 12.0218 13.8564 11.7471C13.5817 11.4725 13.1366 11.4725 12.8619 11.7471C12.0877 12.5211 11.0587 12.9476 9.96408 12.9476H9.81503L12.6671 8.87418L17.972 11.4695ZM11.0477 6.28323L12.1996 7.09L8.09823 12.9476H6.38143C6.97927 12.0937 10.4993 7.06656 11.0477 6.28323ZM12.6609 3.97939L13.813 4.78598L13.0062 5.93808L11.8543 5.13131L12.6609 3.97939ZM1.46687 14.7695L5.28352 8.76633C5.35915 8.64731 5.46755 8.55485 5.59682 8.49863L8.23885 7.35074C8.35623 7.31632 8.47726 7.31394 8.59152 7.33939L4.49983 13.1828C3.63502 13.5617 2.99598 14.363 2.84584 15.3246C2.7173 15.6857 2.15864 15.8681 1.79426 15.6859C1.4513 15.5145 1.31507 15.1075 1.46687 14.7695Z" fill="currentColor"/>
</g>
<defs>
<clipPath id="clip0_5696_84849">
<rect width="24" height="24" fill="white"/>
</clipPath>
</defs>
</svg>
