<svg width="24" height="24" viewBox="0 0 24 24" fill="none" xmlns="http://www.w3.org/2000/svg">
<path fill-rule="evenodd" clip-rule="evenodd" d="M20.75 7.35522C20.75 5.14036 18.7441 3.46628 16.565 3.86248L8.511 5.32684C8.10347 5.40094 7.83316 5.79137 7.90726 6.19891C7.98136 6.60644 8.37179 6.87674 8.77933 6.80265L16.8333 5.33829C18.0917 5.10949 19.25 6.07622 19.25 7.35522V16.7925C19.25 18.0348 18.1539 18.9915 16.923 18.8237L8.7465 17.7087C8.33608 17.6528 7.958 17.9401 7.90204 18.3505C7.84607 18.7609 8.13341 19.139 8.54383 19.195L16.7204 20.3099C18.8519 20.6006 20.75 18.9437 20.75 16.7925V7.35522Z" fill="currentColor"/>
<path fill-rule="evenodd" clip-rule="evenodd" d="M10.75 12C10.75 11.5858 10.4142 11.25 10 11.25H9.9C9.86609 11.25 9.83271 11.2522 9.8 11.2566C9.76729 11.2522 9.73391 11.25 9.7 11.25H9.5C9.46609 11.25 9.43271 11.2522 9.4 11.2566C9.36729 11.2522 9.33391 11.25 9.3 11.25H9.1C9.06609 11.25 9.03271 11.2522 9 11.2566C8.96729 11.2522 8.93391 11.25 8.9 11.25H8.7C8.66609 11.25 8.63271 11.2522 8.6 11.2566C8.56729 11.2522 8.53391 11.25 8.5 11.25H8.3C8.26609 11.25 8.23271 11.2522 8.2 11.2566C8.16729 11.2522 8.13391 11.25 8.1 11.25H7.9C7.86609 11.25 7.83271 11.2522 7.8 11.2566C7.76729 11.2522 7.73391 11.25 7.7 11.25H7.5C7.46609 11.25 7.43271 11.2522 7.4 11.2566C7.36729 11.2522 7.33391 11.25 7.3 11.25H7.1C7.06609 11.25 7.03271 11.2522 7 11.2566C6.96729 11.2522 6.93391 11.25 6.9 11.25H6.7C6.66609 11.25 6.63271 11.2522 6.6 11.2566C6.56729 11.2522 6.53391 11.25 6.5 11.25H6.3C6.26609 11.25 6.23271 11.2522 6.2 11.2566C6.16729 11.2522 6.13391 11.25 6.1 11.25H5.9C5.86609 11.25 5.83271 11.2522 5.8 11.2566C5.76729 11.2522 5.73391 11.25 5.7 11.25H5.5C5.46609 11.25 5.43271 11.2522 5.4 11.2566C5.36729 11.2522 5.33391 11.25 5.3 11.25H5.1C5.06609 11.25 5.03271 11.2522 5 11.2566C4.96729 11.2522 4.93391 11.25 4.9 11.25H4.7C4.6661 11.25 4.63272 11.2522 4.6 11.2566C4.56729 11.2522 4.53391 11.25 4.5 11.25H4.3C4.2661 11.25 4.23272 11.2522 4.2 11.2566C4.16729 11.2522 4.13391 11.25 4.1 11.25H4C3.58579 11.25 3.25 11.5858 3.25 12C3.25 12.4142 3.58579 12.75 4 12.75H4.1C4.13391 12.75 4.16729 12.7477 4.2 12.7434C4.23272 12.7477 4.2661 12.75 4.3 12.75H4.5C4.53391 12.75 4.56729 12.7477 4.6 12.7434C4.63272 12.7477 4.6661 12.75 4.7 12.75H4.9C4.93391 12.75 4.96729 12.7477 5 12.7434C5.03271 12.7477 5.06609 12.75 5.1 12.75H5.3C5.33391 12.75 5.36729 12.7477 5.4 12.7434C5.43271 12.7477 5.46609 12.75 5.5 12.75H5.7C5.73391 12.75 5.76729 12.7477 5.8 12.7434C5.83271 12.7477 5.86609 12.75 5.9 12.75H6.1C6.13391 12.75 6.16729 12.7477 6.2 12.7434C6.23271 12.7477 6.26609 12.75 6.3 12.75H6.5C6.53391 12.75 6.56729 12.7477 6.6 12.7434C6.63271 12.7477 6.66609 12.75 6.7 12.75H6.9C6.93391 12.75 6.96729 12.7477 7 12.7434C7.03271 12.7477 7.06609 12.75 7.1 12.75H7.3C7.33391 12.75 7.36729 12.7477 7.4 12.7434C7.43271 12.7477 7.46609 12.75 7.5 12.75H7.7C7.73391 12.75 7.76729 12.7477 7.8 12.7434C7.83271 12.7477 7.86609 12.75 7.9 12.75H8.1C8.13391 12.75 8.16729 12.7477 8.2 12.7434C8.23271 12.7477 8.26609 12.75 8.3 12.75H8.5C8.53391 12.75 8.56729 12.7477 8.6 12.7434C8.63271 12.7477 8.66609 12.75 8.7 12.75H8.9C8.93391 12.75 8.96729 12.7477 9 12.7434C9.03271 12.7477 9.06609 12.75 9.1 12.75H9.3C9.33391 12.75 9.36729 12.7477 9.4 12.7434C9.43271 12.7477 9.46609 12.75 9.5 12.75H9.7C9.73391 12.75 9.76729 12.7477 9.8 12.7434C9.83271 12.7477 9.86609 12.75 9.9 12.75H10C10.4142 12.75 10.75 12.4142 10.75 12Z" fill="currentColor"/>
<path fill-rule="evenodd" clip-rule="evenodd" d="M10.4 8.55004C10.6486 8.21867 11.1187 8.15152 11.45 8.40004L11.5315 8.46116C11.5592 8.48188 11.585 8.50415 11.6089 8.52775C11.6383 8.54412 11.6669 8.56265 11.6945 8.58338L11.8575 8.7056C11.8851 8.72633 11.9109 8.7486 11.9348 8.7722C11.9642 8.78856 11.9928 8.80709 12.0204 8.82782L12.1834 8.95004C12.211 8.97077 12.2368 8.99304 12.2607 9.01664C12.2901 9.03301 12.3187 9.05154 12.3463 9.07227L12.5093 9.19449C12.5369 9.21522 12.5627 9.23748 12.5867 9.26109C12.616 9.27745 12.6446 9.29598 12.6723 9.31671L12.8352 9.43893C12.8629 9.45966 12.8887 9.48193 12.9126 9.50553C12.942 9.5219 12.9706 9.54043 12.9982 9.56116L13.1612 9.68338C13.1888 9.7041 13.2146 9.72637 13.2385 9.74997C13.2679 9.76634 13.2965 9.78487 13.3241 9.8056L13.4871 9.92782C13.5147 9.94855 13.5405 9.97082 13.5644 9.99442C13.5938 10.0108 13.6224 10.0293 13.65 10.05L13.813 10.1723C13.8406 10.193 13.8664 10.2153 13.8904 10.2389C13.9197 10.2552 13.9483 10.2738 13.976 10.2945L14.1389 10.4167C14.1666 10.4374 14.1924 10.4597 14.2163 10.4833C14.2457 10.4997 14.2743 10.5182 14.3019 10.5389L14.3834 10.6C14.4265 10.6324 14.4679 10.6665 14.5074 10.7021C14.5485 10.7392 14.5845 10.7797 14.6154 10.8228C14.656 10.8573 14.6936 10.8967 14.7272 10.9408C14.794 11.0286 14.8515 11.1214 14.8996 11.2177C14.9243 11.2674 14.9431 11.3185 14.9561 11.3702C14.9813 11.4172 15.0018 11.4675 15.0169 11.5208C15.0465 11.6253 15.0661 11.7318 15.076 11.8388C15.081 11.8936 15.08 11.9476 15.0735 12C15.08 12.0525 15.081 12.1065 15.076 12.1613C15.0661 12.2683 15.0465 12.3748 15.0169 12.4792C15.0018 12.5326 14.9813 12.5829 14.9561 12.6298C14.9431 12.6816 14.9243 12.7327 14.8996 12.7824C14.8515 12.8787 14.794 12.9715 14.7272 13.0593C14.6936 13.1034 14.656 13.1428 14.6154 13.1773C14.5845 13.2204 14.5485 13.2609 14.5074 13.298C14.4679 13.3336 14.4265 13.3677 14.3834 13.4L14.3019 13.4612C14.2743 13.4819 14.2457 13.5004 14.2163 13.5168C14.1924 13.5404 14.1666 13.5626 14.1389 13.5834L13.976 13.7056C13.9483 13.7263 13.9197 13.7449 13.8904 13.7612C13.8664 13.7848 13.8406 13.8071 13.813 13.8278L13.65 13.95C13.6224 13.9708 13.5938 13.9893 13.5644 14.0057C13.5405 14.0293 13.5147 14.0515 13.4871 14.0723L13.3241 14.1945C13.2965 14.2152 13.2679 14.2337 13.2385 14.2501C13.2146 14.2737 13.1888 14.296 13.1612 14.3167L12.9982 14.4389C12.9706 14.4597 12.942 14.4782 12.9126 14.4946C12.8887 14.5182 12.8629 14.5404 12.8352 14.5612L12.6723 14.6834C12.6446 14.7041 12.616 14.7226 12.5867 14.739C12.5627 14.7626 12.5369 14.7849 12.5093 14.8056L12.3463 14.9278C12.3187 14.9485 12.2901 14.9671 12.2607 14.9834C12.2368 15.007 12.211 15.0293 12.1834 15.05L12.0204 15.1723C11.9928 15.193 11.9642 15.2115 11.9348 15.2279C11.9109 15.2515 11.8851 15.2738 11.8575 15.2945L11.6945 15.4167C11.6669 15.4374 11.6383 15.456 11.6089 15.4723C11.585 15.4959 11.5592 15.5182 11.5315 15.5389L11.45 15.6C11.1187 15.8486 10.6486 15.7814 10.4 15.45C10.1515 15.1187 10.2187 14.6486 10.55 14.4L10.6315 14.3389C10.6592 14.3182 10.6878 14.2997 10.7171 14.2833C10.7411 14.2597 10.7669 14.2374 10.7945 14.2167L10.9575 14.0945C10.9851 14.0738 11.0137 14.0552 11.043 14.0389C11.067 14.0153 11.0928 13.993 11.1204 13.9723L11.2834 13.85C11.311 13.8293 11.3396 13.8108 11.369 13.7944C11.3929 13.7708 11.4187 13.7485 11.4463 13.7278L11.6093 13.6056C11.6369 13.5849 11.6655 13.5663 11.6949 13.55C11.7188 13.5264 11.7446 13.5041 11.7723 13.4834L11.9352 13.3612C11.9629 13.3404 11.9915 13.3219 12.0208 13.3055C12.0448 13.2819 12.0706 13.2597 12.0982 13.2389L12.2612 13.1167C12.2888 13.096 12.3174 13.0775 12.3468 13.0611C12.3707 13.0375 12.3965 13.0152 12.4241 12.9945L12.5871 12.8723C12.6147 12.8515 12.6433 12.833 12.6727 12.8166C12.6966 12.793 12.7224 12.7708 12.75 12.75L12.913 12.6278C12.9406 12.6071 12.9692 12.5886 12.9986 12.5722C13.0225 12.5486 13.0483 12.5263 13.076 12.5056L13.2389 12.3834C13.2666 12.3626 13.2952 12.3441 13.3245 12.3278C13.3485 12.3042 13.3743 12.2819 13.4019 12.2612L13.4834 12.2C13.4904 12.1948 13.4968 12.1895 13.5027 12.1841C13.5085 12.1789 13.5144 12.1737 13.5204 12.1687C13.5248 12.1625 13.5293 12.1564 13.5339 12.1504C13.543 12.1384 13.5508 12.1259 13.5573 12.1128C13.5607 12.106 13.5642 12.0993 13.5678 12.0926C13.5696 12.0852 13.5716 12.0778 13.5737 12.0704C13.5779 12.0555 13.5808 12.0399 13.5823 12.024C13.583 12.016 13.5839 12.008 13.5849 12C13.5839 11.9921 13.583 11.9841 13.5823 11.9761C13.5808 11.9602 13.5779 11.9446 13.5737 11.9297C13.5716 11.9223 13.5696 11.9149 13.5678 11.9075C13.5642 11.9008 13.5607 11.8941 13.5573 11.8873C13.5508 11.8742 13.543 11.8617 13.5339 11.8497C13.5293 11.8437 13.5248 11.8375 13.5204 11.8314C13.5144 11.8263 13.5085 11.8212 13.5027 11.8159C13.4968 11.8106 13.4904 11.8053 13.4834 11.8L13.4019 11.7389C13.3743 11.7182 13.3485 11.6959 13.3245 11.6723C13.2952 11.656 13.2666 11.6374 13.2389 11.6167L13.076 11.4945C13.0483 11.4738 13.0225 11.4515 12.9986 11.4279C12.9692 11.4115 12.9406 11.393 12.913 11.3723L12.75 11.25C12.7224 11.2293 12.6966 11.207 12.6727 11.1834C12.6433 11.1671 12.6147 11.1485 12.5871 11.1278L12.4241 11.0056C12.3965 10.9849 12.3707 10.9626 12.3468 10.939C12.3174 10.9226 12.2888 10.9041 12.2612 10.8834L12.0982 10.7612C12.0706 10.7404 12.0448 10.7182 12.0208 10.6946C11.9915 10.6782 11.9629 10.6597 11.9352 10.6389L11.7723 10.5167C11.7446 10.496 11.7188 10.4737 11.6949 10.4501C11.6655 10.4337 11.6369 10.4152 11.6093 10.3945L11.4463 10.2723C11.4187 10.2515 11.3929 10.2293 11.369 10.2057C11.3396 10.1893 11.311 10.1708 11.2834 10.15L11.1204 10.0278C11.0928 10.0071 11.067 9.98483 11.043 9.96122C11.0137 9.94486 10.9851 9.92633 10.9575 9.9056L10.7945 9.78338C10.7669 9.76265 10.7411 9.74038 10.7171 9.71678C10.6878 9.70041 10.6592 9.68188 10.6315 9.66116L10.55 9.60004C10.2187 9.35152 10.1515 8.88141 10.4 8.55004Z" fill="currentColor"/>
</svg>
