<svg width="178" height="46" viewBox="0 0 178 46" fill="none" xmlns="http://www.w3.org/2000/svg">
<path d="M59.9711 16.3212H54.6208C54.5746 16.3212 54.5302 16.3393 54.497 16.3718C54.4637 16.4043 54.4443 16.4485 54.4427 16.4952V26.939C54.4427 29.6478 56.3469 29.741 59.9711 29.5484C59.9955 29.5467 60.02 29.5501 60.043 29.5584C60.0661 29.5667 60.0872 29.5797 60.1051 29.5966C60.1229 29.6135 60.1372 29.6339 60.1469 29.6566C60.1566 29.6794 60.1616 29.7038 60.1615 29.7286V35.3202C60.1604 35.3645 60.1438 35.407 60.1145 35.44C60.0852 35.4731 60.0453 35.4944 60.0018 35.5003C51.1748 36.5006 47.9314 33.885 47.9314 26.939V16.4952C47.9314 16.4491 47.9133 16.4048 47.881 16.3722C47.8488 16.3396 47.805 16.3212 47.7594 16.3212H43.7175C43.6944 16.3213 43.6716 16.3166 43.6503 16.3074C43.629 16.2983 43.6098 16.2849 43.5937 16.2681C43.5776 16.2513 43.5651 16.2314 43.5568 16.2096C43.5486 16.1877 43.5447 16.1644 43.5456 16.1411V10.1705C43.5447 10.1472 43.5486 10.1239 43.5568 10.102C43.5651 10.0802 43.5776 10.0603 43.5937 10.0435C43.6098 10.0267 43.629 10.0133 43.6503 10.0042C43.6716 9.99502 43.6944 9.99033 43.7175 9.99034H47.7471C47.7703 9.99036 47.7931 9.98566 47.8144 9.97653C47.8357 9.9674 47.8549 9.95403 47.871 9.93721C47.887 9.9204 47.8996 9.90048 47.9079 9.87865C47.9161 9.85682 47.92 9.83353 47.9191 9.81017V4.97035C47.9212 4.93243 47.9346 4.89604 47.9577 4.86606C47.9807 4.83608 48.0123 4.81394 48.0481 4.8026L54.1908 2.93875C54.2181 2.92417 54.2487 2.91727 54.2795 2.91876C54.3103 2.92026 54.3401 2.93009 54.3658 2.94724C54.3916 2.96438 54.4123 2.98821 54.4258 3.01623C54.4393 3.04424 54.4451 3.07542 54.4427 3.10649V9.81017C54.4427 9.85795 54.4614 9.90378 54.4948 9.93757C54.5283 9.97136 54.5736 9.99034 54.6208 9.99034H59.9711C60.0183 9.99034 60.0636 10.0093 60.0971 10.0431C60.1305 10.0769 60.1492 10.1227 60.1492 10.1705V16.1535C60.1461 16.1991 60.126 16.2418 60.0929 16.2729C60.0598 16.3041 60.0163 16.3214 59.9711 16.3212V16.3212Z" fill="#0B0D27"/>
<path d="M73.8291 29.2005C73.8096 29.2205 73.7949 29.2448 73.7863 29.2715C73.7778 29.2982 73.7755 29.3266 73.7796 29.3544C73.7838 29.3821 73.7943 29.4085 73.8104 29.4314C73.8265 29.4543 73.8476 29.4731 73.8721 29.4863C76.6486 31.0023 79.3637 30.3872 82.048 27.6722C83.7495 25.945 84.5051 24.0128 84.2778 21.975C84.272 21.9341 84.2813 21.8924 84.304 21.858C84.3266 21.8236 84.3611 21.7989 84.4007 21.7886L89.9291 20.2913C89.9529 20.2849 89.9778 20.2836 90.0022 20.2874C90.0266 20.2913 90.0499 20.3002 90.0707 20.3136C90.0915 20.3271 90.1093 20.3447 90.123 20.3655C90.1367 20.3862 90.1459 20.4096 90.1502 20.4342C90.8628 24.69 89.536 28.5544 86.1575 31.9715C83.1967 34.9661 79.9472 36.4447 76.3783 36.4447C74.6135 36.4448 72.8672 36.0801 71.2468 35.3728C69.6264 34.6655 68.1661 33.6307 66.9554 32.3318C65.685 31.1122 64.6703 29.6465 63.9717 28.022C63.2731 26.3975 62.9049 24.6473 62.889 22.8759C62.8153 19.2662 64.2097 16.0417 66.9554 13.2708C68.1254 12.0101 69.5501 11.0191 71.1327 10.3651C72.7152 9.71114 74.4184 9.40958 76.1265 9.48093C79.6446 9.57915 82.9805 11.0852 85.4019 13.6684C85.9887 14.2845 86.5306 14.9428 87.0236 15.6379C87.0501 15.6702 87.0645 15.7108 87.0645 15.7528C87.0645 15.7948 87.0501 15.8354 87.0236 15.8677L73.8291 29.2005ZM78.9582 16.7748C78.9789 16.7573 78.9955 16.7355 79.0069 16.7108C79.0183 16.6861 79.0242 16.6592 79.0242 16.6319C79.0242 16.6047 79.0183 16.5778 79.0069 16.5531C78.9955 16.5284 78.9789 16.5065 78.9582 16.489C77.7481 15.673 76.2888 15.3227 74.8451 15.5017C73.4014 15.6806 72.069 16.377 71.0895 17.4645C68.6877 19.8999 68.2884 22.8448 69.8978 25.6406C69.9122 25.664 69.9316 25.6838 69.9545 25.6988C69.9774 25.7137 70.0033 25.7233 70.0303 25.7268C70.0574 25.7304 70.0848 25.7278 70.1108 25.7194C70.1367 25.7109 70.1605 25.6967 70.1803 25.6779L78.9582 16.7748Z" fill="#0B0D27"/>
<path d="M116.453 35.7301H109.34C109.314 35.7302 109.289 35.7247 109.266 35.714C109.242 35.7033 109.222 35.6876 109.205 35.668L100.384 24.5346C100.361 24.507 100.329 24.4872 100.295 24.4778C100.26 24.4684 100.223 24.4699 100.189 24.482C100.156 24.4941 100.126 24.5162 100.105 24.5456C100.084 24.5749 100.072 24.6101 100.071 24.6464V35.5562C100.069 35.6029 100.05 35.6471 100.016 35.6796C99.9832 35.712 99.9388 35.7302 99.8926 35.7301H93.7499C93.7047 35.7286 93.6619 35.7098 93.6299 35.6775C93.598 35.6452 93.5794 35.6018 93.5779 35.5562V0.180173C93.5778 0.133445 93.5958 0.0885345 93.6279 0.0549186C93.6599 0.0213027 93.7037 0.00161129 93.7499 0L99.8926 0C99.9398 0 99.9851 0.0189824 100.019 0.0527714C100.052 0.0865604 100.071 0.132388 100.071 0.180173V20.9249C100.069 20.9625 100.08 20.9996 100.101 21.0305C100.122 21.0615 100.153 21.0846 100.188 21.0965C100.223 21.1084 100.262 21.1084 100.297 21.0965C100.332 21.0846 100.363 21.0615 100.384 21.0305L108.695 10.2761C108.712 10.2549 108.734 10.2378 108.758 10.226C108.783 10.2141 108.809 10.2079 108.836 10.2077H116.152C116.185 10.2086 116.218 10.2187 116.245 10.237C116.273 10.2554 116.295 10.2811 116.309 10.3115C116.323 10.3418 116.329 10.3755 116.325 10.4087C116.321 10.442 116.308 10.4735 116.287 10.4997L106.459 22.7018C106.433 22.7341 106.418 22.7747 106.418 22.8167C106.418 22.8587 106.433 22.8993 106.459 22.9317L116.582 35.4443C116.601 35.4702 116.612 35.5006 116.616 35.5324C116.619 35.5642 116.614 35.5963 116.6 35.6254C116.587 35.6545 116.567 35.6796 116.541 35.698C116.515 35.7164 116.485 35.7275 116.453 35.7301V35.7301Z" fill="#0B0D27"/>
<path d="M140.354 10.2141H146.497C146.52 10.2141 146.543 10.2188 146.564 10.2279C146.586 10.2371 146.605 10.2504 146.621 10.2673C146.637 10.2841 146.65 10.304 146.658 10.3258C146.666 10.3476 146.67 10.3709 146.669 10.3943V35.5564C146.67 35.5797 146.666 35.603 146.658 35.6249C146.65 35.6467 146.637 35.6666 146.621 35.6834C146.605 35.7002 146.586 35.7136 146.564 35.7227C146.543 35.7319 146.52 35.7366 146.497 35.7365H140.354C140.331 35.7366 140.308 35.7319 140.287 35.7227C140.266 35.7136 140.247 35.7002 140.231 35.6834C140.215 35.6666 140.202 35.6467 140.194 35.6249C140.186 35.603 140.182 35.5797 140.182 35.5564V33.4316C140.185 33.3927 140.174 33.3541 140.152 33.3221C140.13 33.2901 140.098 33.2665 140.061 33.255C140.025 33.2435 139.985 33.2449 139.949 33.2589C139.913 33.2729 139.883 33.2987 139.863 33.3322C138.284 35.4259 135.87 36.4386 132.658 36.4386C131.384 36.4811 130.115 36.2531 128.933 35.7695C127.751 35.2858 126.683 34.5571 125.796 33.6304C124.027 31.7665 123.118 29.1882 123.118 25.8705V10.3943C123.118 10.3465 123.137 10.3007 123.17 10.2669C123.204 10.2331 123.249 10.2141 123.296 10.2141H129.439C129.462 10.2141 129.485 10.2188 129.506 10.2279C129.527 10.2371 129.547 10.2504 129.563 10.2673C129.579 10.2841 129.591 10.304 129.6 10.3258C129.608 10.3476 129.612 10.3709 129.611 10.3943V25.0691C129.611 28.4861 131.583 30.3251 134.611 30.3251C137.99 30.3251 140.14 28.2314 140.14 23.9942V10.3943C140.138 10.3668 140.142 10.3392 140.153 10.3139C140.164 10.2885 140.18 10.2661 140.201 10.2485C140.222 10.2309 140.247 10.2186 140.274 10.2126C140.3 10.2067 140.328 10.2072 140.354 10.2141V10.2141Z" fill="#0B0D27"/>
<path d="M173.539 13.1328C175.951 15.7021 177.259 19.1335 177.175 22.6757C177.261 26.2349 175.954 29.6844 173.539 32.2746C172.453 33.515 171.116 34.5041 169.618 35.1742C168.12 35.8443 166.497 36.1797 164.859 36.1576C161.512 36.1576 158.889 35.0517 156.99 32.8089C156.968 32.7802 156.937 32.7593 156.903 32.7492C156.868 32.7392 156.831 32.7404 156.797 32.7528C156.763 32.7651 156.734 32.788 156.713 32.8182C156.693 32.8483 156.682 32.8842 156.683 32.9207V45.4707C156.683 45.5185 156.665 45.5643 156.631 45.5981C156.598 45.6319 156.552 45.6509 156.505 45.6509H150.363C150.315 45.6509 150.27 45.6319 150.237 45.5981C150.203 45.5643 150.184 45.5185 150.184 45.4707V10.0947C150.184 10.0713 150.189 10.0482 150.198 10.0267C150.207 10.0051 150.22 9.98567 150.237 9.96944C150.254 9.9532 150.273 9.94052 150.295 9.93215C150.316 9.92378 150.339 9.9199 150.363 9.92073H156.505C156.528 9.9199 156.551 9.92378 156.573 9.93215C156.595 9.94052 156.614 9.9532 156.631 9.96944C156.647 9.98567 156.661 10.0051 156.67 10.0267C156.679 10.0482 156.683 10.0713 156.683 10.0947V12.4369C156.682 12.4735 156.693 12.5093 156.713 12.5395C156.734 12.5696 156.763 12.5925 156.797 12.6049C156.831 12.6173 156.868 12.6185 156.903 12.6084C156.937 12.5984 156.968 12.5775 156.99 12.5488C158.889 10.3059 161.512 9.20004 164.859 9.20004C166.5 9.18741 168.125 9.53209 169.622 10.2107C171.12 10.8893 172.456 11.8859 173.539 13.1328V13.1328ZM163.649 29.9075C164.572 29.9387 165.491 29.7784 166.35 29.4364C167.209 29.0945 167.989 28.5782 168.643 27.9194C169.314 27.2361 169.84 26.4211 170.187 25.5247C170.535 24.6282 170.697 23.6692 170.664 22.7068C170.702 21.7532 170.541 20.8022 170.193 19.9151C169.845 19.028 169.317 18.2245 168.643 17.5563C167.303 16.2449 165.511 15.5117 163.646 15.5117C161.781 15.5117 159.989 16.2449 158.649 17.5563C157.994 18.2355 157.481 19.0422 157.144 19.9275C156.806 20.8129 156.649 21.7584 156.683 22.7068C156.653 23.664 156.812 24.6177 157.149 25.5125C157.487 26.4073 157.996 27.2255 158.649 27.9194C159.308 28.5716 160.091 29.0814 160.95 29.4179C161.81 29.7543 162.728 29.9103 163.649 29.8764V29.9075Z" fill="#0B0D27"/>
<path fill-rule="evenodd" clip-rule="evenodd" d="M16.7575 5.04536C7.62928 5.04536 0.255554 12.5256 0.255554 21.7204C0.255554 30.9153 7.62928 38.3955 16.7575 38.3955C25.8858 38.3955 33.2595 30.9153 33.2595 21.7204C33.2595 12.5256 25.8858 5.04536 16.7575 5.04536Z" fill="#F8D000"/>
<path fill-rule="evenodd" clip-rule="evenodd" d="M5.55597 21.7204C5.55597 15.4404 10.5854 10.3755 16.7575 10.3755C22.9297 10.3755 27.9591 15.4404 27.9591 21.7204C27.9591 28.0005 22.9297 33.0653 16.7575 33.0653C10.5854 33.0653 5.55597 28.0005 5.55597 21.7204ZM16.7575 5.04536C7.62928 5.04536 0.255554 12.5256 0.255554 21.7204C0.255554 30.9153 7.62928 38.3955 16.7575 38.3955C25.8858 38.3955 33.2595 30.9153 33.2595 21.7204C33.2595 12.5256 25.8858 5.04536 16.7575 5.04536Z" fill="#0B0D27"/>
<path d="M23.2498 15.3395L9.40421 19.092L15.1046 22.273L11.6524 25.7646L12.9178 27.0445L16.3762 23.5404L19.5396 29.3432L23.2498 15.3395Z" fill="#0B0D27"/>
</svg>
