<svg width="128" height="128" viewBox="0 0 128 128" fill="none" xmlns="http://www.w3.org/2000/svg">
<circle cx="64" cy="64" r="64" fill="#FCFAFA"/>
<g clip-path="url(#clip0_6613_97455)">
<path d="M67.7013 46.637C67.8956 46.2277 67.7213 45.7385 67.3119 45.5443C66.9025 45.35 66.4134 45.5244 66.2192 45.9336C65.8687 46.6719 65.1145 47.149 64.2976 47.149C63.4806 47.149 62.7264 46.6719 62.3761 45.9336C62.1818 45.5244 61.6926 45.35 61.2833 45.5443C60.874 45.7385 60.6997 46.2277 60.8938 46.637C61.5144 47.9447 62.8504 48.7896 64.2976 48.7896C65.7447 48.7896 67.0807 47.9446 67.7013 46.637Z" fill="#CEC1C1"/>
<path d="M58.2382 43.2578C58.8926 43.2578 59.423 42.4682 59.423 41.4941C59.423 40.5201 58.8926 39.7305 58.2382 39.7305C57.5838 39.7305 57.0533 40.5201 57.0533 41.4941C57.0533 42.4682 57.5838 43.2578 58.2382 43.2578Z" fill="#CEC1C1"/>
<path d="M70.357 43.2578C71.0114 43.2578 71.5419 42.4682 71.5419 41.4941C71.5419 40.5201 71.0114 39.7305 70.357 39.7305C69.7026 39.7305 69.1722 40.5201 69.1722 41.4941C69.1722 42.4682 69.7026 43.2578 70.357 43.2578Z" fill="#CEC1C1"/>
<path d="M82.1291 54.9553C82.0331 54.5125 81.5967 54.2314 81.1537 54.3274L72.0701 56.2961C71.6273 56.392 71.3462 56.8288 71.4421 57.2715C71.5254 57.6558 71.8653 57.9183 72.243 57.9183C72.3005 57.9183 72.359 57.9121 72.4175 57.8995L81.5011 55.9307C81.9439 55.8348 82.225 55.3981 82.1291 54.9553Z" fill="#CEC1C1"/>
<path d="M81.1535 57.3781L72.0699 59.3469C71.6272 59.4428 71.3461 59.8795 71.442 60.3223C71.5253 60.7065 71.8652 60.969 72.2429 60.969C72.3004 60.969 72.3589 60.9629 72.4174 60.9502L81.501 58.9814C81.9438 58.8855 82.2249 58.4488 82.129 58.006C82.0331 57.5633 81.5967 57.2823 81.1535 57.3781Z" fill="#CEC1C1"/>
<path d="M86.4143 52.2446H85.9233V50.7953C85.9233 49.7821 85.4706 48.8361 84.6813 48.1998C83.8923 47.5637 82.872 47.3221 81.8821 47.5371L77.6062 48.4638C77.891 47.6951 78.0602 46.8836 78.103 46.0576C78.1306 45.5171 78.1522 44.9756 78.1699 44.4336C79.8169 44.0743 81.0542 42.6055 81.0542 40.8524C81.0542 39.0787 79.7889 37.5955 78.1138 37.2576C78.0149 35.2027 77.8446 33.15 77.6042 31.1085C79.5236 29.0604 81.0325 26.779 81.5062 25.1013C81.8067 24.0368 81.7212 23.1851 81.2519 22.57C80.8187 22.0023 80.2283 21.7005 79.5443 21.6971C78.7612 21.6942 77.9055 22.0698 76.9309 22.8445C76.9678 22.1416 76.8445 21.5611 76.5611 21.1104C76.2775 20.659 75.6973 20.1211 74.544 20.1211C73.0104 20.1211 71.8054 20.9819 70.925 21.9764C70.8389 21.5796 70.6925 21.2093 70.4605 20.9043C70.0709 20.392 69.5011 20.1211 68.8127 20.1211C67.4832 20.1211 66.4345 21.2237 65.391 22.5605C64.9537 22.3138 64.3473 22.0005 63.6294 21.7064C63.3038 21.5737 62.9682 21.451 62.6287 21.3404C61.4233 20.9539 60.2922 20.7854 59.267 20.8397C59.2596 20.84 59.2495 20.8408 59.2399 20.8417C59.2372 20.8418 59.2345 20.8419 59.2316 20.8421C59.08 20.8507 58.9326 20.8642 58.779 20.8834C57.0115 21.1082 55.6158 22.0038 54.6207 23.5489C52.8406 22.9254 49.9682 22.7007 48.403 25.2379C48.1651 25.6234 48.2847 26.1288 48.6704 26.3667C48.8047 26.4495 48.9533 26.489 49.1003 26.489C49.3755 26.489 49.6442 26.3507 49.7992 26.0993C51.2622 23.728 54.475 25.2524 54.6092 25.3175C55.0103 25.5148 55.4954 25.3548 55.7002 24.9577C56.4543 23.4966 57.5291 22.6962 58.9842 22.5112C59.0961 22.4972 59.2048 22.4872 59.3163 22.4806C59.3332 22.48 59.3506 22.4788 59.3682 22.4774C60.1904 22.4359 61.1186 22.5792 62.1242 22.9016C62.4229 22.9989 62.721 23.1079 63.0089 23.2253C63.5488 23.4464 64.0214 23.6821 64.3867 23.8803C63.526 25.0062 62.6389 26.0664 61.7157 26.4073C61.2907 26.5643 61.0734 27.036 61.2303 27.461C61.3874 27.8861 61.8591 28.1033 62.2841 27.9464C63.7992 27.3869 64.9623 25.8444 66.0872 24.3527C67.003 23.1381 68.041 21.7617 68.8127 21.7617C69.0327 21.7617 69.1044 21.8316 69.1543 21.8971C69.5585 22.4276 69.3628 24.0693 69.1036 25.011C68.9863 25.4337 69.2223 25.8737 69.6391 26.01C70.0561 26.1465 70.5062 25.9307 70.6613 25.5205C70.6755 25.4829 72.1498 21.7617 74.544 21.7617C75.0326 21.7617 75.1376 21.9284 75.172 21.9831C75.5523 22.5867 75.0325 24.3238 74.5617 25.3072C74.38 25.685 74.5124 26.139 74.8687 26.36C75.225 26.5809 75.6907 26.4975 75.9482 26.1668C75.954 26.1594 76.5323 25.4197 77.3142 24.6842C78.6039 23.4707 79.2936 23.3376 79.533 23.3376H79.5362C79.6795 23.3384 79.8043 23.3773 79.9475 23.565C80.0789 23.7374 80.0714 24.1449 79.9272 24.6553C79.122 27.5072 74.5096 32.6931 70.8959 34.0893C66.1813 35.9109 59.8798 34.9266 56.8486 31.8954C56.6292 31.676 56.3049 31.5992 56.0104 31.6968C55.716 31.7945 55.5017 32.0498 55.4569 32.3568C55.455 32.3692 55.2673 33.6153 54.6138 34.8596C53.8031 36.4034 52.6774 37.1862 51.2681 37.1862C51.267 37.1862 51.2661 37.1863 51.2651 37.1863C51.2456 37.1859 51.2262 37.1851 51.2068 37.1851C50.7791 37.1851 50.3686 37.2595 49.9866 37.3948C49.1447 33.8368 48.8173 30.9616 49.0163 28.8417C49.0587 28.3906 48.7274 27.9906 48.2763 27.9483C47.8253 27.9061 47.4252 28.2373 47.3829 28.6883C47.1564 31.1011 47.5434 34.3515 48.5299 38.3505C47.917 39.0062 47.5407 39.8859 47.5407 40.8524C47.5407 42.6059 48.7785 44.075 50.4261 44.4338C50.4439 44.9763 50.4654 45.518 50.4932 46.0574C50.5335 46.8484 50.6903 47.6277 50.954 48.3685L47.1181 47.5371C46.1281 47.3221 45.1076 47.5636 44.3183 48.1998C43.5291 48.8361 43.0765 49.7821 43.0765 50.7953V52.2446H42.5855C40.8652 52.2446 39.4655 53.6443 39.4655 55.3647V57.4289C39.4655 59.1493 40.8652 60.5489 42.5855 60.5489H43.0765V69.2841C43.0765 70.8427 44.182 72.2135 45.705 72.5434L62.1277 76.1025C62.1286 76.1027 62.1296 76.1027 62.1305 76.1029C62.1531 76.1077 62.1763 76.1113 62.1996 76.1141C62.2049 76.1147 62.21 76.116 62.2153 76.1165C62.2424 76.1193 62.27 76.1208 62.2978 76.1209C62.299 76.1209 62.3002 76.1211 62.3015 76.1211H66.6983C66.6995 76.1211 66.7007 76.1209 66.7019 76.1209C66.7298 76.1208 66.7574 76.1193 66.7845 76.1165C66.7898 76.116 66.7949 76.1147 66.8002 76.1141C66.8235 76.1113 66.8465 76.1077 66.8693 76.1029C66.8703 76.1027 66.8712 76.1027 66.8721 76.1025L83.2947 72.5434C84.8177 72.2135 85.9232 70.8427 85.9232 69.2841V68.1654C85.9232 67.7123 85.5559 67.3451 85.1029 67.3451C84.6498 67.3451 84.2825 67.7123 84.2825 68.1654V69.2841C84.2825 70.0759 83.721 70.7723 82.9473 70.94L67.5185 74.2837V52.3286L82.2299 49.1404C82.7326 49.0312 83.2508 49.1539 83.6518 49.4771C84.0527 49.8003 84.2828 50.2808 84.2828 50.7953V52.5165C83.1946 53.0044 82.4343 54.097 82.4343 55.3646V57.4289C82.4343 58.6966 83.1946 59.7892 84.2828 60.2769V64.8841C84.2828 65.3372 84.65 65.7044 85.1031 65.7044C85.5561 65.7044 85.9234 65.3372 85.9234 64.8841V60.5489H86.4144C88.1347 60.5489 89.5344 59.1493 89.5344 57.4289V55.3646C89.5343 53.6442 88.1346 52.2446 86.4143 52.2446ZM79.4136 40.8523C79.4136 41.6767 78.9177 42.3865 78.2092 42.7022C78.2252 41.4654 78.2155 40.2265 78.1799 38.9873C78.9042 39.2963 79.4136 40.0158 79.4136 40.8523ZM49.1816 40.8523C49.1816 40.0166 49.69 39.2977 50.4134 38.9882C50.378 40.2244 50.3698 41.4649 50.3862 42.7022C49.6775 42.3866 49.1816 41.6768 49.1816 40.8523ZM52.1319 45.9733C52.0088 43.59 51.9863 41.1698 52.0624 38.7675C53.7386 38.5133 55.1123 37.4393 56.0665 35.6224C56.3719 35.0409 56.592 34.4616 56.7473 33.9675C58.4187 35.2134 60.625 36.0787 63.1038 36.4433C66.0235 36.8729 69.0008 36.5804 71.4873 35.6197C73.0107 35.0312 74.6281 33.9127 76.1153 32.5709C76.5739 37.0266 76.692 41.5272 76.4645 45.9733C76.411 47.0067 76.1103 48.0115 75.5927 48.9002L66.6105 50.8468H62.3894L52.9453 48.8001C52.4631 47.9373 52.1825 46.9674 52.1319 45.9733ZM63.1221 52.4873H65.8779V74.4805H63.1221V52.4873ZM41.1063 57.4289V55.3646C41.1063 54.5488 41.77 53.8852 42.5857 53.8852H43.4459C44.2616 53.8852 44.9253 54.5488 44.9253 55.3646V57.4289C44.9253 58.2446 44.2616 58.9083 43.4459 58.9083H42.5857C41.77 58.9083 41.1063 58.2447 41.1063 57.4289ZM44.7173 69.2841V60.277C45.8055 59.7892 46.5658 58.6966 46.5658 57.429V55.3647C46.5658 54.097 45.8055 53.0044 44.7173 52.5167V50.7953C44.7173 50.2808 44.9474 49.8003 45.3483 49.4771C45.7493 49.1539 46.2675 49.0312 46.7705 49.1405L61.4815 52.3286V74.2837L46.0526 70.94C45.2789 70.7723 44.7173 70.0759 44.7173 69.2841ZM87.8937 57.4289C87.8937 58.2446 87.23 58.9083 86.4143 58.9083H85.5541C84.7384 58.9083 84.0747 58.2446 84.0747 57.4289V55.3646C84.0747 54.5488 84.7384 53.8852 85.5541 53.8852H86.4143C87.23 53.8852 87.8937 54.5488 87.8937 55.3646V57.4289Z" fill="#CEC1C1"/>
</g>
<path d="M22.6692 88.8049C22.325 88.8049 22.0195 88.8726 21.7527 89.0079C21.4898 89.1394 21.2674 89.3308 21.0857 89.5821C20.9078 89.8335 20.7725 90.137 20.6797 90.4928C20.5869 90.8485 20.5405 91.2487 20.5405 91.6934C20.5405 92.2928 20.614 92.8051 20.7609 93.2305C20.9117 93.6519 21.1437 93.9748 21.4569 94.1991C21.7701 94.4195 22.1742 94.5297 22.6692 94.5297C23.0133 94.5297 23.3574 94.491 23.7016 94.4137C24.0496 94.3364 24.4266 94.2262 24.8326 94.0831V95.5911C24.4575 95.7458 24.0883 95.856 23.7248 95.9218C23.3613 95.9914 22.9534 96.0262 22.5009 96.0262C21.6271 96.0262 20.9078 95.8464 20.3433 95.4867C19.7826 95.1233 19.3669 94.6167 19.0962 93.9671C18.8256 93.3136 18.6902 92.5518 18.6902 91.6818C18.6902 91.0399 18.7772 90.4522 18.9512 89.9186C19.1252 89.3849 19.3804 88.9229 19.7169 88.5323C20.0533 88.1418 20.4689 87.8402 20.9639 87.6275C21.4588 87.4148 22.0273 87.3085 22.6692 87.3085C23.0906 87.3085 23.5121 87.3626 23.9336 87.4709C24.3589 87.5753 24.765 87.7203 25.1516 87.9059L24.5716 89.3675C24.2545 89.2167 23.9355 89.0853 23.6146 88.9731C23.2936 88.861 22.9785 88.8049 22.6692 88.8049ZM28.2721 86.8851V88.7237C28.2721 89.0447 28.2605 89.3501 28.2373 89.6402C28.218 89.9302 28.2025 90.1351 28.1909 90.255H28.2837C28.4229 90.0307 28.5873 89.849 28.7768 89.7098C28.9701 89.5705 29.1828 89.4681 29.4148 89.4023C29.6468 89.3366 29.8962 89.3037 30.163 89.3037C30.6309 89.3037 31.0388 89.3869 31.3868 89.5531C31.7348 89.7156 32.0055 89.9727 32.1989 90.3246C32.3922 90.6726 32.4889 91.125 32.4889 91.6818V95.9102H30.7198V92.1226C30.7198 91.6586 30.6347 91.3087 30.4646 91.0728C30.2945 90.8369 30.0315 90.719 29.6758 90.719C29.32 90.719 29.0397 90.8021 28.8348 90.9684C28.6298 91.1308 28.4848 91.3725 28.3997 91.6934C28.3147 92.0105 28.2721 92.3991 28.2721 92.8593V95.9102H26.5031V86.8851H28.2721ZM42.8712 88.4511L42.9582 88.5787C42.8925 88.9035 42.8055 89.209 42.6972 89.4951C42.5889 89.7774 42.4362 90.0326 42.239 90.2608C42.0457 90.4889 41.7885 90.6803 41.4676 90.835C41.1505 90.9897 40.7483 91.1018 40.2611 91.1714V95.9102H38.9039L38.6661 95.0807H38.5617C38.4225 95.3011 38.2485 95.4809 38.0397 95.6201C37.8308 95.7594 37.6008 95.8618 37.3494 95.9276C37.102 95.9933 36.8448 96.0262 36.578 96.0262C36.114 96.0262 35.7099 95.945 35.3658 95.7826C35.0216 95.6163 34.7529 95.3591 34.5595 95.0111C34.3701 94.6631 34.2753 94.2107 34.2753 93.6539V89.4255H36.0444V93.2131C36.0444 93.6771 36.1275 94.027 36.2938 94.2629C36.4601 94.4988 36.7249 94.6167 37.0884 94.6167C37.6298 94.6167 37.9991 94.433 38.1963 94.0657C38.3935 93.6945 38.4921 93.1647 38.4921 92.4764V89.4255H40.2611V90.1042C40.4583 90.0384 40.6207 89.9282 40.7483 89.7736C40.8759 89.6189 40.9707 89.4294 41.0326 89.2051C41.0944 88.977 41.1254 88.7257 41.1254 88.4511H42.8712ZM45.9917 89.2921C46.8617 89.2921 47.5288 89.4816 47.9928 89.8606C48.4568 90.2395 48.6888 90.8157 48.6888 91.589V95.9102H47.4534L47.1112 95.0285H47.0648C46.8791 95.2605 46.6897 95.45 46.4963 95.5969C46.303 95.7439 46.0807 95.8522 45.8293 95.9218C45.578 95.9914 45.2725 96.0262 44.9129 96.0262C44.5301 96.0262 44.1859 95.9527 43.8804 95.8058C43.5788 95.6588 43.341 95.4345 43.167 95.1329C42.993 94.8275 42.906 94.4408 42.906 93.9729C42.906 93.2846 43.1477 92.7781 43.631 92.4532C44.1144 92.1246 44.8394 91.9428 45.8061 91.908L46.9313 91.8732V91.589C46.9313 91.2487 46.8424 90.9993 46.6645 90.8408C46.4867 90.6823 46.2392 90.603 45.9221 90.603C45.6089 90.603 45.3015 90.6475 44.9999 90.7364C44.6983 90.8253 44.3967 90.9375 44.0951 91.0728L43.5092 89.878C43.8534 89.6962 44.2381 89.5531 44.6635 89.4487C45.0927 89.3443 45.5354 89.2921 45.9917 89.2921ZM46.9313 92.9057L46.2469 92.9289C45.6746 92.9443 45.2764 93.0468 45.0521 93.2363C44.8317 93.4257 44.7215 93.6751 44.7215 93.9845C44.7215 94.2552 44.8007 94.4485 44.9593 94.5645C45.1178 94.6766 45.3247 94.7327 45.5799 94.7327C45.9588 94.7327 46.2779 94.6206 46.5369 94.3963C46.7999 94.172 46.9313 93.853 46.9313 93.4393V92.9057ZM56.2349 96.0262C55.593 96.0262 55.0458 95.9102 54.5934 95.6781C54.141 95.4423 53.7968 95.0788 53.561 94.5877C53.3251 94.0966 53.2072 93.4683 53.2072 92.7027C53.2072 91.91 53.3406 91.2642 53.6074 90.7654C53.878 90.2627 54.2512 89.8934 54.7268 89.6576C55.2063 89.4217 55.7612 89.3037 56.3915 89.3037C56.84 89.3037 57.2267 89.3482 57.5515 89.4371C57.8802 89.5222 58.1663 89.6247 58.4099 89.7446L57.8879 91.1134C57.6095 91.0013 57.3504 90.9104 57.1107 90.8408C56.8709 90.7673 56.6312 90.7306 56.3915 90.7306C56.0821 90.7306 55.825 90.8041 55.62 90.951C55.4151 91.0941 55.2624 91.3106 55.1618 91.6006C55.0613 91.8906 55.011 92.2541 55.011 92.6911C55.011 93.1203 55.0651 93.476 55.1734 93.7583C55.2817 94.0406 55.4383 94.2513 55.6432 94.3905C55.8482 94.5258 56.0976 94.5935 56.3915 94.5935C56.7588 94.5935 57.0855 94.5452 57.3717 94.4485C57.6578 94.348 57.9362 94.2088 58.2069 94.0309V95.5447C57.9362 95.7149 57.652 95.8367 57.3543 95.9102C57.0604 95.9875 56.6873 96.0262 56.2349 96.0262ZM65.608 92.6562C65.608 93.1976 65.5345 93.6771 65.3875 94.0947C65.2445 94.5123 65.0337 94.8661 64.7553 95.1561C64.4808 95.4423 64.1482 95.6588 63.7577 95.8058C63.371 95.9527 62.9341 96.0262 62.4469 96.0262C61.9906 96.0262 61.571 95.9527 61.1882 95.8058C60.8093 95.6588 60.4787 95.4423 60.1964 95.1561C59.918 94.8661 59.7014 94.5123 59.5468 94.0947C59.396 93.6771 59.3206 93.1976 59.3206 92.6562C59.3206 91.937 59.4482 91.328 59.7034 90.8292C59.9586 90.3304 60.3221 89.9514 60.7938 89.6924C61.2655 89.4333 61.8282 89.3037 62.4817 89.3037C63.0887 89.3037 63.6262 89.4333 64.0941 89.6924C64.5659 89.9514 64.9351 90.3304 65.2019 90.8292C65.4726 91.328 65.608 91.937 65.608 92.6562ZM61.1244 92.6562C61.1244 93.0816 61.1708 93.4393 61.2636 93.7293C61.3564 94.0193 61.5014 94.2378 61.6986 94.3847C61.8958 94.5316 62.153 94.6051 62.4701 94.6051C62.7833 94.6051 63.0365 94.5316 63.2299 94.3847C63.4271 94.2378 63.5702 94.0193 63.6591 93.7293C63.7519 93.4393 63.7983 93.0816 63.7983 92.6562C63.7983 92.227 63.7519 91.8713 63.6591 91.589C63.5702 91.3029 63.4271 91.0883 63.2299 90.9452C63.0327 90.8021 62.7755 90.7306 62.4585 90.7306C61.9906 90.7306 61.6503 90.8911 61.4376 91.212C61.2288 91.5329 61.1244 92.0144 61.1244 92.6562ZM64.7495 86.8097V86.9315C64.6374 87.0397 64.4905 87.1731 64.3087 87.3317C64.127 87.4902 63.9317 87.6565 63.7229 87.8305C63.5141 88.0006 63.3091 88.165 63.1081 88.3235C62.907 88.4782 62.7311 88.6077 62.5803 88.7121H61.4028V88.5555C61.5304 88.4086 61.6774 88.2346 61.8436 88.0335C62.0138 87.8286 62.182 87.6178 62.3483 87.4013C62.5145 87.1847 62.6537 86.9875 62.7659 86.8097H64.7495ZM72.2086 96.0262C71.4855 96.0262 70.8958 95.7439 70.4395 95.1793C69.9871 94.6109 69.7609 93.7776 69.7609 92.6795C69.7609 91.5697 69.991 90.7306 70.4511 90.1622C70.9113 89.5899 71.5125 89.3037 72.255 89.3037C72.5643 89.3037 72.8369 89.3463 73.0728 89.4313C73.3087 89.5164 73.5117 89.6305 73.6818 89.7736C73.8558 89.9166 74.0028 90.0771 74.1226 90.255H74.1806C74.1574 90.1312 74.1284 89.9495 74.0936 89.7098C74.0627 89.4661 74.0472 89.2167 74.0472 88.9615V86.8851H75.8221V95.9102H74.4648L74.1226 95.0691H74.0472C73.9351 95.247 73.794 95.4094 73.6238 95.5563C73.4575 95.6994 73.2584 95.8135 73.0264 95.8986C72.7944 95.9836 72.5218 96.0262 72.2086 96.0262ZM72.8292 94.6167C73.3125 94.6167 73.6528 94.4736 73.85 94.1875C74.0511 93.8975 74.1574 93.4625 74.169 92.8825V92.6911C74.169 92.0608 74.0724 91.5793 73.879 91.2468C73.6857 90.9104 73.3261 90.7422 72.8002 90.7422C72.4096 90.7422 72.1042 90.9104 71.8838 91.2468C71.6634 91.5832 71.5531 92.0685 71.5531 92.7027C71.5531 93.3368 71.6634 93.8144 71.8838 94.1353C72.108 94.4562 72.4232 94.6167 72.8292 94.6167ZM86.2334 88.4511L86.3204 88.5787C86.2547 88.9035 86.1677 89.209 86.0594 89.4951C85.9512 89.7774 85.7984 90.0326 85.6012 90.2608C85.4079 90.4889 85.1507 90.6803 84.8298 90.835C84.5127 90.9897 84.1106 91.1018 83.6233 91.1714V95.9102H82.2661L82.0283 95.0807H81.9239C81.7847 95.3011 81.6107 95.4809 81.4019 95.6201C81.1931 95.7594 80.963 95.8618 80.7116 95.9276C80.4642 95.9933 80.207 96.0262 79.9402 96.0262C79.4762 96.0262 79.0721 95.945 78.728 95.7826C78.3838 95.6163 78.1151 95.3591 77.9218 95.0111C77.7323 94.6631 77.6375 94.2107 77.6375 93.6539V89.4255H79.4066V93.2131C79.4066 93.6771 79.4897 94.027 79.656 94.2629C79.8223 94.4988 80.0872 94.6167 80.4506 94.6167C80.992 94.6167 81.3613 94.433 81.5585 94.0657C81.7557 93.6945 81.8543 93.1647 81.8543 92.4764V89.4255H83.6233V90.1042C83.8206 90.0384 83.983 89.9282 84.1106 89.7736C84.2382 89.6189 84.3329 89.4294 84.3948 89.2051C84.4566 88.977 84.4876 88.7257 84.4876 88.4511H86.2334ZM78.2408 88.7237C78.264 88.4144 78.32 88.1476 78.409 87.9233C78.4979 87.6952 78.6139 87.5095 78.757 87.3665C78.9001 87.2195 79.0605 87.1113 79.2384 87.0417C79.4201 86.9682 79.6135 86.9315 79.8184 86.9315C79.977 86.9315 80.1316 86.9624 80.2824 87.0243C80.4371 87.0823 80.5879 87.1519 80.7349 87.2331C80.8857 87.3143 81.0326 87.3858 81.1757 87.4477C81.3226 87.5057 81.4657 87.5347 81.6049 87.5347C81.7209 87.5347 81.833 87.4844 81.9413 87.3839C82.0534 87.2795 82.1346 87.1248 82.1849 86.9199H83.0491C83.0027 87.5308 82.8287 87.9832 82.5271 88.2771C82.2255 88.5671 81.8736 88.7121 81.4715 88.7121C81.3129 88.7121 81.1563 88.6812 81.0017 88.6193C80.8509 88.5574 80.7 88.4878 80.5492 88.4105C80.4023 88.3293 80.2573 88.2578 80.1142 88.1959C79.9712 88.134 79.83 88.1031 79.6908 88.1031C79.5709 88.1031 79.4549 88.1553 79.3428 88.2597C79.2345 88.3602 79.1553 88.5149 79.105 88.7237H78.2408ZM91.5522 95.9102H89.7831V86.8851H91.5522V95.9102ZM95.1831 89.4255V95.9102H93.4141V89.4255H95.1831ZM94.3015 86.8851C94.5644 86.8851 94.7906 86.9469 94.9801 87.0707C95.1696 87.1905 95.2643 87.4167 95.2643 87.7493C95.2643 88.078 95.1696 88.3061 94.9801 88.4337C94.7906 88.5574 94.5644 88.6193 94.3015 88.6193C94.0347 88.6193 93.8065 88.5574 93.6171 88.4337C93.4315 88.3061 93.3387 88.078 93.3387 87.7493C93.3387 87.4167 93.4315 87.1905 93.6171 87.0707C93.8065 86.9469 94.0347 86.8851 94.3015 86.8851ZM99.7189 89.3037C100.318 89.3037 100.834 89.4197 101.268 89.6518C101.701 89.8799 102.035 90.2124 102.271 90.6494C102.507 91.0863 102.625 91.6199 102.625 92.2502V93.1087H98.4428C98.4622 93.6075 98.611 94 98.8894 94.2861C99.1717 94.5684 99.5623 94.7095 100.061 94.7095C100.475 94.7095 100.854 94.667 101.198 94.5819C101.542 94.4968 101.896 94.3692 102.259 94.1991V95.5679C101.938 95.7265 101.602 95.8425 101.25 95.916C100.902 95.9894 100.479 96.0262 99.9799 96.0262C99.3303 96.0262 98.7541 95.9063 98.2514 95.6665C97.7526 95.4268 97.3601 95.0614 97.074 94.5703C96.7917 94.0792 96.6506 93.4605 96.6506 92.7143C96.6506 91.9564 96.7782 91.3261 97.0334 90.8234C97.2925 90.3168 97.6521 89.9379 98.1122 89.6866C98.5724 89.4313 99.1079 89.3037 99.7189 89.3037ZM99.7305 90.5624C99.3863 90.5624 99.1002 90.6726 98.872 90.893C98.6478 91.1134 98.5182 91.4595 98.4834 91.9312H100.966C100.962 91.6683 100.914 91.4343 100.821 91.2294C100.732 91.0245 100.597 90.8621 100.415 90.7422C100.237 90.6223 100.009 90.5624 99.7305 90.5624ZM100.676 86.8097C100.788 86.9875 100.933 87.1847 101.111 87.4013C101.293 87.6178 101.478 87.8286 101.668 88.0335C101.857 88.2384 102.022 88.4124 102.161 88.5555V88.7121H100.989C100.78 88.5884 100.552 88.4414 100.305 88.2713C100.061 88.0973 99.8368 87.904 99.6319 87.6913C99.4231 87.904 99.2007 88.0954 98.9648 88.2655C98.729 88.4318 98.5086 88.5807 98.3036 88.7121H97.1262V88.5555C97.2731 88.4086 97.4413 88.2346 97.6308 88.0335C97.8203 87.8286 98.0039 87.6178 98.1818 87.4013C98.3597 87.1847 98.5028 86.9875 98.611 86.8097H100.676ZM99.6203 98.4042C99.3535 98.4042 99.1253 98.3404 98.9358 98.2128C98.7502 98.0891 98.6574 97.8648 98.6574 97.54C98.6574 97.2075 98.7502 96.9793 98.9358 96.8556C99.1253 96.7318 99.3535 96.67 99.6203 96.67C99.8832 96.67 100.109 96.7318 100.299 96.8556C100.488 96.9793 100.583 97.2075 100.583 97.54C100.583 97.8648 100.488 98.0891 100.299 98.2128C100.109 98.3404 99.8832 98.4042 99.6203 98.4042ZM110.014 89.4255V95.9102H108.657L108.419 95.0807H108.326C108.187 95.3011 108.013 95.4809 107.804 95.6201C107.596 95.7594 107.365 95.8618 107.114 95.9276C106.863 95.9933 106.602 96.0262 106.331 96.0262C105.867 96.0262 105.463 95.945 105.119 95.7826C104.775 95.6163 104.506 95.3591 104.313 95.0111C104.123 94.6631 104.028 94.2107 104.028 93.6539V89.4255H105.797V93.2131C105.797 93.6771 105.881 94.027 106.047 94.2629C106.213 94.4988 106.478 94.6167 106.841 94.6167C107.201 94.6167 107.483 94.5355 107.688 94.3731C107.893 94.2068 108.036 93.9652 108.118 93.6481C108.203 93.3271 108.245 92.9366 108.245 92.4764V89.4255H110.014Z" fill="#CEC1C1"/>
<defs>
<clipPath id="clip0_6613_97455">
<rect width="56" height="56" fill="white" transform="translate(36.5 20.1211)"/>
</clipPath>
</defs>
</svg>
