<svg width="16" height="16" viewBox="0 0 16 16" fill="none" xmlns="http://www.w3.org/2000/svg">
<path d="M9.77956 6.66669H9.33511V5.77779C9.33511 4.79734 8.53777 4 7.55732 4C6.57686 4 5.77952 4.79734 5.77952 5.77779V6.66669H5.33507C5.08974 6.66669 4.89062 6.8658 4.89062 7.11114V10.6667C4.89062 10.9121 5.08974 11.1112 5.33507 11.1112H9.77956C10.0249 11.1112 10.224 10.9121 10.224 10.6667V7.11114C10.224 6.8658 10.0249 6.66669 9.77956 6.66669ZM6.66842 5.77779C6.66842 5.28801 7.06665 4.8889 7.55732 4.8889C8.04799 4.8889 8.44622 5.28801 8.44622 5.77779V6.66669H6.66842V5.77779ZM9.33511 10.2223H5.77952V7.55558H9.33511V10.2223Z" fill="#2C2C2C" stroke="#2C2C2C" stroke-width="0.2"/>
<path d="M14.8348 5.36554C14.6063 5.27398 14.3476 5.38509 14.2579 5.61354L13.9921 6.27844C13.2285 3.43485 10.6374 1.3335 7.55736 1.3335C3.88088 1.3335 0.890625 4.32375 0.890625 8.00023C0.890625 11.6767 3.88088 14.667 7.55736 14.667C9.33782 14.667 11.0116 13.9736 12.2721 12.7141C12.4454 12.5407 12.4454 12.2589 12.2721 12.0856C12.0987 11.9123 11.817 11.9123 11.6436 12.0856C10.5512 13.1772 9.0996 13.7781 7.55736 13.7781C4.37155 13.7781 1.77952 11.186 1.77952 8.00023C1.77952 4.81442 4.37155 2.22239 7.55736 2.22239C10.3316 2.22239 12.6543 4.18864 13.2081 6.80022L12.3165 5.90777C12.1432 5.73443 11.8614 5.73443 11.6881 5.90777C11.5147 6.0811 11.5147 6.36288 11.6881 6.53622L13.4659 8.31401C13.4756 8.32379 13.489 8.32735 13.4996 8.33624C13.5334 8.36468 13.5681 8.39224 13.609 8.40913C13.6623 8.43313 13.721 8.44468 13.7796 8.44468C13.809 8.44468 13.8392 8.44202 13.8694 8.43579C13.8819 8.43313 13.8908 8.42335 13.9023 8.41979C13.9476 8.40646 13.9885 8.38602 14.0268 8.36024C14.0436 8.34868 14.0605 8.34068 14.0756 8.32735C14.1245 8.2829 14.1654 8.23046 14.1912 8.16823C14.1912 8.16735 14.1921 8.16646 14.193 8.16557L15.0819 5.94332C15.1734 5.71576 15.0632 5.4571 14.8348 5.36554Z" fill="#2C2C2C" stroke="#2C2C2C" stroke-width="0.2"/>
</svg>
