<svg width="16" height="14" viewBox="0 0 16 14" fill="none" xmlns="http://www.w3.org/2000/svg">
<path d="M0.77686 10.2959C0.896245 10.3556 1.02479 10.3969 1.15735 10.42L0.95081 10.7149C0.909062 10.7746 0.881841 10.8431 0.871098 10.915L0.563603 12.9887C0.537602 13.1644 0.612919 13.3396 0.758427 13.4415C0.904058 13.5434 1.09449 13.5541 1.25049 13.4697L2.98719 12.5292C3.22706 12.9626 3.68898 13.2568 4.2184 13.2568C4.57826 13.2568 4.907 13.1209 5.1559 12.8979C5.40492 13.1209 5.73366 13.2568 6.0934 13.2568C6.86892 13.2568 7.49978 12.6259 7.49978 11.8505V11.6711C8.37173 12.0954 9.34268 12.3193 10.3123 12.3193C11.3139 12.3193 12.3072 12.0895 13.1874 11.6553V12.788C13.1874 12.9505 13.2715 13.1014 13.4097 13.1868C13.5476 13.272 13.7203 13.2801 13.8658 13.2073L15.7409 12.2698C15.8997 12.1904 16 12.0281 16 11.8505V6.22537C16 5.96646 15.7901 5.75662 15.5313 5.75662C14.7846 5.75662 12.9731 5.75662 12.2959 5.75662L8.98916 4.13857L10.2455 2.34438C10.3938 2.13246 10.3424 1.83998 10.1303 1.69154L8.59438 0.615979C8.38247 0.467664 8.08999 0.519055 7.94155 0.731092C7.74306 1.01454 6.47646 2.82351 6.27931 3.105C5.89479 2.90297 5.43373 2.90395 5.14125 3.0309L3.35755 3.80581C3.09901 3.91824 2.88233 4.10329 2.73121 4.34121L0.171634 8.3671C0.00537365 8.6287 -0.0634742 9.07755 0.0715359 9.4827C0.190311 9.83903 0.4408 10.1278 0.77686 10.2959ZM1.62855 12.1989L1.78236 11.162L2.20155 10.5633C2.38123 10.8256 2.62574 11.0398 2.91187 11.1834L2.5503 11.6998L1.62855 12.1989ZM4.2184 12.3194C3.95997 12.3194 3.74965 12.1091 3.74965 11.8505V11.6214L3.91749 11.3818H4.68715V11.8505C4.68715 12.1091 4.47694 12.3194 4.2184 12.3194ZM6.09352 12.3194C5.83498 12.3194 5.62477 12.1091 5.62477 11.8505V11.3818H6.56227V11.8505C6.56227 12.1091 6.35195 12.3194 6.09352 12.3194ZM15.0625 11.5608L14.1249 12.0296V6.69412H15.0625V11.5608ZM11.9814 6.64639C12.0456 6.67776 12.116 6.69412 12.1874 6.69412H13.1874V10.617C12.8715 10.7398 11.8905 11.3818 10.3124 11.3818C8.63943 11.3818 7.60903 10.6408 7.24062 10.4937C7.17373 10.4602 7.09999 10.4443 7.03102 10.4443H3.74965C3.27027 10.4443 2.87403 10.0826 2.81898 9.61771C2.83363 9.54972 2.83228 9.4799 2.81678 9.41312C2.8639 8.93998 3.26429 8.56925 3.74965 8.56925H6.64272C7.62282 8.56925 8.54446 8.18753 9.23757 7.49442C9.42056 7.31131 9.42056 7.01456 9.23757 6.83145C9.05447 6.64835 8.75771 6.64835 8.57461 6.83145C8.05849 7.34744 7.37246 7.63175 6.64272 7.63175H6.54335L8.44473 4.91616L11.9814 6.64639ZM7.36513 3.18886L8.13308 3.72671L5.39882 7.63175H4.25428C4.65285 7.06253 6.99953 3.71108 7.36513 3.18886ZM8.44057 1.65297L9.20864 2.19069L8.6708 2.95876L7.90285 2.42092L8.44057 1.65297ZM0.97791 8.84635L3.52235 4.84426C3.57277 4.76492 3.64503 4.70327 3.73121 4.6658L5.49257 3.90053C5.57082 3.87759 5.6515 3.876 5.72768 3.89297L2.99989 7.78861C2.42335 8.04117 1.99732 8.57535 1.89722 9.21647C1.81153 9.45719 1.43909 9.57877 1.19617 9.45731C0.967534 9.34305 0.876714 9.07169 0.97791 8.84635Z" fill="white"/>
</svg>
