<svg width="16" height="11" viewBox="0 0 16 11" fill="none" xmlns="http://www.w3.org/2000/svg">
<path d="M8.00002 1.99984C10.5267 1.99984 12.78 3.41984 13.88 5.6665C12.78 7.91317 10.5267 9.33317 8.00002 9.33317C5.47335 9.33317 3.22002 7.91317 2.12002 5.6665C3.22002 3.41984 5.47335 1.99984 8.00002 1.99984ZM8.00002 0.666504C4.66669 0.666504 1.82002 2.73984 0.666687 5.6665C1.82002 8.59317 4.66669 10.6665 8.00002 10.6665C11.3334 10.6665 14.18 8.59317 15.3334 5.6665C14.18 2.73984 11.3334 0.666504 8.00002 0.666504ZM8.00002 3.99984C8.92002 3.99984 9.66669 4.7465 9.66669 5.6665C9.66669 6.5865 8.92002 7.33317 8.00002 7.33317C7.08002 7.33317 6.33335 6.5865 6.33335 5.6665C6.33335 4.7465 7.08002 3.99984 8.00002 3.99984ZM8.00002 2.6665C6.34669 2.6665 5.00002 4.01317 5.00002 5.6665C5.00002 7.31984 6.34669 8.6665 8.00002 8.6665C9.65335 8.6665 11 7.31984 11 5.6665C11 4.01317 9.65335 2.6665 8.00002 2.6665Z" fill="#2C2C2C"/>
</svg>
