<svg width="12" height="13" viewBox="0 0 12 13" fill="none" xmlns="http://www.w3.org/2000/svg">
<path d="M6.40044 1.595L7.2066 4.0761C7.37571 4.59655 7.8607 4.94892 8.40794 4.94892H11.0167C11.4246 4.94892 11.5942 5.47086 11.2642 5.71061L9.15366 7.24401C8.71094 7.56567 8.52569 8.13582 8.69479 8.65627L9.50095 11.1374C9.62699 11.5253 9.183 11.8479 8.85301 11.6081L6.74247 10.0747C6.29974 9.75305 5.70025 9.75306 5.25753 10.0747L3.14698 11.6081C2.817 11.8479 2.37301 11.5253 2.49905 11.1374L3.30521 8.65627C3.47431 8.13582 3.28906 7.56567 2.84634 7.24401L0.735791 5.71061C0.405809 5.47086 0.575395 4.94892 0.983281 4.94892H3.59206C4.1393 4.94892 4.62429 4.59655 4.7934 4.0761L5.59956 1.595C5.7256 1.20708 6.2744 1.20707 6.40044 1.595Z" fill="#EE9416" stroke="#EE9416" stroke-width="0.842105"/>
</svg>
