<svg width="11" height="15" viewBox="0 0 11 15" fill="none" xmlns="http://www.w3.org/2000/svg">
<path d="M9.5013 5.33366H8.83463V4.00033C8.83463 2.16033 7.3413 0.666992 5.5013 0.666992C3.6613 0.666992 2.16797 2.16033 2.16797 4.00033H3.5013C3.5013 2.89366 4.39464 2.00033 5.5013 2.00033C6.60797 2.00033 7.5013 2.89366 7.5013 4.00033V5.33366H1.5013C0.767969 5.33366 0.167969 5.93366 0.167969 6.66699V13.3337C0.167969 14.067 0.767969 14.667 1.5013 14.667H9.5013C10.2346 14.667 10.8346 14.067 10.8346 13.3337V6.66699C10.8346 5.93366 10.2346 5.33366 9.5013 5.33366ZM9.5013 13.3337H1.5013V6.66699H9.5013V13.3337ZM5.5013 11.3337C6.23463 11.3337 6.83463 10.7337 6.83463 10.0003C6.83463 9.26699 6.23463 8.66699 5.5013 8.66699C4.76797 8.66699 4.16797 9.26699 4.16797 10.0003C4.16797 10.7337 4.76797 11.3337 5.5013 11.3337Z" fill="white"/>
</svg>
