<svg width="26" height="26" viewBox="0 0 26 26" fill="none" xmlns="http://www.w3.org/2000/svg">
<g clip-path="url(#clip0_1931_42215)">
<path d="M0 6.31206C0 2.826 2.826 0 6.31206 0H18.9362C22.4222 0 25.2482 2.826 25.2482 6.31206V18.9362C25.2482 22.4222 22.4222 25.2482 18.9362 25.2482H6.31206C2.826 25.2482 0 22.4222 0 18.9362V6.31206Z" fill="black" fill-opacity="0.16"/>
<path d="M9.03662 17.4533L13.8548 12.6246L9.03662 7.79583L10.52 6.3125L16.832 12.6246L10.52 18.9366L9.03662 17.4533Z" fill="white" class="point"/>
</g>
<defs>
<clipPath id="clip0_1931_42215">
<path d="M0 6.31206C0 2.826 2.826 0 6.31206 0H18.9362C22.4222 0 25.2482 2.826 25.2482 6.31206V18.9362C25.2482 22.4222 22.4222 25.2482 18.9362 25.2482H6.31206C2.826 25.2482 0 22.4222 0 18.9362V6.31206Z" fill="white" />
</clipPath>
</defs>
</svg>
