<svg width="27" height="26" viewBox="0 0 27 26" fill="none" xmlns="http://www.w3.org/2000/svg">
<g clip-path="url(#clip0_1931_42216)">
<path d="M0.780273 6.31206C0.780273 2.826 3.60628 0 7.09233 0H19.7164C23.2025 0 26.0285 2.826 26.0285 6.31206V18.9362C26.0285 22.4222 23.2025 25.2482 19.7164 25.2482H7.09233C3.60628 25.2482 0.780273 22.4222 0.780273 18.9362V6.31206Z" fill="black" fill-opacity="0.16"/>
<path d="M16.9919 17.4533L12.1737 12.6246L16.9919 7.79583L15.5086 6.3125L9.19653 12.6246L15.5086 18.9366L16.9919 17.4533Z" fill="white"  class="point"/>
</g>
<defs>
<clipPath id="clip0_1931_42216">
<path d="M0.780273 6.31206C0.780273 2.826 3.60628 0 7.09233 0H19.7164C23.2025 0 26.0285 2.826 26.0285 6.31206V18.9362C26.0285 22.4222 23.2025 25.2482 19.7164 25.2482H7.09233C3.60628 25.2482 0.780273 22.4222 0.780273 18.9362V6.31206Z" fill="white"/>
</clipPath>
</defs>
</svg>
